<svg width="540" height="140" viewBox="0 0 540 140" fill="none" xmlns="http://www.w3.org/2000/svg">
<rect width="540" height="120" fill="white" fill-opacity="0.01"></rect>
<path d="M540 0H0V120H540V0Z" fill="#00C7E5"></path>
<path opacity="0.7" d="M0 67.2222H540V26.2778C511.369 28.3778 486.056 28.7778 464.231 28.3667C373.331 26.6444 305.916 10.1111 221.766 0H0V67.2222Z" fill="url(#paint0_linear_1123_202018)"></path>
<path opacity="0.6" d="M0 117.889H540V49.8111C453.094 36.6778 375.666 20.8333 260.972 40.2889C180.619 53.9222 98.7469 82.0333 1.88437 63.5333C1.26562 63.4111 0.61875 63.2889 0 63.1667V117.889Z" fill="url(#paint1_linear_1123_202018)"></path>
<path opacity="0.6" d="M540 73.2444C418.922 89.3111 321.834 116.556 158.4 114.056C95.625 113.1 41.5406 108.033 0 102.667V120H540V73.2444Z" fill="url(#paint2_linear_1123_202018)"></path>
<g clip-path="url(#clip0_1123_202018)">
<rect width="58.0856" height="80" transform="translate(241 60)" fill="white" fill-opacity="0.01"></rect>
<path d="M286.205 140C285.918 136.166 286.131 132.31 286.84 128.531C290.917 128.873 295.018 128.826 299.086 128.39C289.205 120.344 284.264 108.593 285.464 95.9241L268.172 96.9475C266.584 113.745 273.113 129.343 286.205 140Z" fill="#0065FF"></path>
<path d="M253.88 140C254.15 136.166 253.937 132.312 253.245 128.531C249.168 128.873 245.068 128.826 241 128.39C250.881 120.344 255.786 108.593 254.622 95.9241L271.913 96.9475C273.466 113.745 266.937 129.343 253.88 140Z" fill="url(#paint3_linear_1123_202018)"></path>
<path d="M295.804 89.9956C295.032 90.5619 294.49 91.3868 294.276 92.3197C294.062 93.2527 294.191 94.2314 294.639 95.0772V95.0772C294.924 95.6308 295.077 96.243 295.086 96.8657C295.094 97.4884 294.958 98.1045 294.687 98.6655C294.417 99.2266 294.02 99.7172 293.528 100.099C293.036 100.48 292.462 100.743 291.851 100.865V100.865C290.911 101.034 290.064 101.539 289.467 102.285C288.87 103.031 288.564 103.968 288.605 104.923V104.923C288.626 105.545 288.501 106.163 288.24 106.728C287.979 107.293 287.589 107.79 287.102 108.177C286.615 108.565 286.044 108.833 285.435 108.96C284.826 109.088 284.195 109.071 283.594 108.91H283.558C282.64 108.678 281.67 108.778 280.818 109.191C279.966 109.604 279.287 110.304 278.9 111.169V111.169C278.648 111.742 278.265 112.247 277.783 112.646C277.301 113.045 276.732 113.326 276.122 113.466C275.512 113.607 274.878 113.603 274.27 113.456C273.662 113.308 273.096 113.02 272.619 112.616V112.616C271.893 112.004 270.974 111.668 270.025 111.668C269.076 111.668 268.157 112.004 267.431 112.616V112.616C266.957 113.02 266.394 113.308 265.789 113.456C265.183 113.604 264.551 113.607 263.944 113.467C263.336 113.326 262.77 113.045 262.291 112.646C261.812 112.247 261.433 111.741 261.185 111.169V111.169C260.798 110.297 260.113 109.591 259.253 109.178C258.394 108.764 257.415 108.669 256.492 108.91V108.91C255.89 109.079 255.257 109.101 254.644 108.977C254.031 108.853 253.457 108.585 252.968 108.196C252.479 107.807 252.089 107.308 251.831 106.738C251.572 106.169 251.452 105.547 251.481 104.923V104.923C251.507 103.972 251.195 103.042 250.601 102.299C250.006 101.556 249.168 101.048 248.234 100.865V100.865C247.624 100.743 247.05 100.48 246.557 100.099C246.065 99.7172 245.669 99.2266 245.398 98.6655C245.128 98.1045 244.992 97.4884 245 96.8657C245.008 96.243 245.161 95.6308 245.446 95.0772V95.0772C245.88 94.2283 246.001 93.2538 245.788 92.3247C245.575 91.3955 245.042 90.571 244.282 89.9956V89.9956C243.779 89.625 243.369 89.1413 243.087 88.5835C242.805 88.0257 242.658 87.4094 242.658 86.7843C242.658 86.1592 242.805 85.5429 243.087 84.9851C243.369 84.4273 243.779 83.9436 244.282 83.573V83.573C245.042 82.9976 245.575 82.1731 245.788 81.2439C246.001 80.3148 245.88 79.3403 245.446 78.4914C245.161 77.9378 245.008 77.3256 245 76.7029C244.992 76.0802 245.128 75.4641 245.398 74.9031C245.669 74.342 246.065 73.8514 246.557 73.4698C247.05 73.0882 247.624 72.8261 248.234 72.704V72.704C249.168 72.5208 250.006 72.0125 250.601 71.2695C251.195 70.5265 251.507 69.5969 251.481 68.6458V68.6458C251.454 68.0208 251.575 67.3983 251.833 66.8286C252.092 66.2589 252.481 65.7581 252.968 65.3664C253.456 64.9748 254.029 64.7034 254.641 64.5743C255.254 64.4451 255.887 64.4617 256.492 64.6229V64.6229C257.411 64.8666 258.386 64.777 259.245 64.37C260.104 63.9631 260.792 63.265 261.185 62.3996V62.3996C261.433 61.8277 261.812 61.3218 262.291 60.9228C262.77 60.5237 263.336 60.2426 263.944 60.1019C264.551 59.9612 265.183 59.9648 265.789 60.1126C266.394 60.2604 266.957 60.5482 267.431 60.9528V60.9528C268.157 61.5649 269.076 61.9006 270.025 61.9006C270.974 61.9006 271.893 61.5649 272.619 60.9528V60.9528C273.096 60.5483 273.662 60.2607 274.27 60.1131C274.878 59.9654 275.512 59.9616 276.122 60.1021C276.732 60.2426 277.301 60.5234 277.783 60.9223C278.265 61.3211 278.648 61.827 278.9 62.3996V62.3996C279.287 63.2641 279.966 63.9646 280.818 64.3777C281.67 64.7908 282.64 64.8901 283.558 64.6581H283.594C284.198 64.5048 284.829 64.4939 285.438 64.6261C286.047 64.7584 286.616 65.0302 287.102 65.4203C287.588 65.8103 287.977 66.3079 288.237 66.8738C288.498 67.4396 288.624 68.0583 288.605 68.6811C288.573 69.6297 288.883 70.5583 289.479 71.2969C290.075 72.0356 290.917 72.5351 291.851 72.704V72.704C292.462 72.8261 293.036 73.0882 293.528 73.4698C294.02 73.8514 294.417 74.342 294.687 74.9031C294.958 75.4641 295.094 76.0802 295.086 76.7029C295.077 77.3256 294.924 77.9378 294.639 78.4914C294.198 79.3388 294.074 80.3153 294.287 81.2464C294.5 82.1774 295.038 83.0021 295.804 83.573V83.573C296.307 83.9436 296.716 84.4273 296.998 84.9851C297.28 85.5429 297.427 86.1592 297.427 86.7843C297.427 87.4094 297.28 88.0257 296.998 88.5835C296.716 89.1413 296.307 89.625 295.804 89.9956V89.9956Z" fill="#FFC400"></path>
<path d="M270.043 105.17C280.294 105.17 288.605 96.8593 288.605 86.6078C288.605 76.3563 280.294 68.0459 270.043 68.0459C259.791 68.0459 251.481 76.3563 251.481 86.6078C251.481 96.8593 259.791 105.17 270.043 105.17Z" fill="#FFD740"></path>
<path d="M270.043 108.346C265.743 108.346 261.541 107.071 257.966 104.682C254.391 102.294 251.605 98.8987 249.96 94.9266C248.314 90.9545 247.884 86.5837 248.723 82.367C249.561 78.1502 251.632 74.2769 254.672 71.2368C257.712 68.1966 261.585 66.1263 265.802 65.2875C270.019 64.4488 274.389 64.8793 278.362 66.5246C282.334 68.1699 285.729 70.9561 288.117 74.5309C290.506 78.1056 291.781 82.3085 291.781 86.6078C291.781 92.3731 289.491 97.9022 285.414 101.979C281.337 106.056 275.808 108.346 270.043 108.346V108.346ZM270.043 65.5756C265.883 65.5756 261.817 66.8091 258.358 69.1202C254.899 71.4312 252.203 74.716 250.612 78.5592C249.02 82.4023 248.603 86.6312 249.415 90.711C250.226 94.7909 252.229 98.5384 255.171 101.48C258.112 104.421 261.86 106.424 265.94 107.236C270.019 108.047 274.248 107.631 278.091 106.039C281.935 104.447 285.219 101.751 287.53 98.2927C289.841 94.834 291.075 90.7676 291.075 86.6078C291.075 83.8458 290.531 81.1109 289.474 78.5592C288.417 76.0074 286.868 73.6888 284.915 71.7358C282.962 69.7828 280.643 68.2336 278.091 67.1766C275.54 66.1196 272.805 65.5756 270.043 65.5756V65.5756Z" fill="#FFD740"></path>
<path d="M270.784 77.8562L273.183 82.6908C273.242 82.8146 273.331 82.9217 273.442 83.0019C273.553 83.0821 273.683 83.1329 273.819 83.1495L279.147 83.9259C279.303 83.9499 279.449 84.0171 279.569 84.1197C279.689 84.2224 279.778 84.3565 279.826 84.507C279.873 84.6574 279.878 84.8182 279.839 84.9711C279.8 85.1241 279.72 85.2632 279.606 85.3727L275.76 89.1486C275.656 89.2313 275.579 89.3413 275.535 89.4661C275.491 89.5909 275.483 89.7254 275.512 89.8544L276.43 95.2183C276.457 95.37 276.44 95.5261 276.381 95.6685C276.323 95.8109 276.225 95.9336 276.099 96.0224C275.973 96.1112 275.824 96.1624 275.671 96.17C275.517 96.1776 275.364 96.1413 275.23 96.0653L270.431 93.5598C270.313 93.4916 270.179 93.4557 270.043 93.4557C269.906 93.4557 269.773 93.4916 269.655 93.5598L264.855 96.0653C264.721 96.1413 264.569 96.1776 264.415 96.17C264.261 96.1624 264.112 96.1112 263.987 96.0224C263.861 95.9336 263.763 95.8109 263.704 95.6685C263.646 95.5261 263.629 95.37 263.655 95.2183L264.573 89.8544C264.594 89.7255 264.583 89.5932 264.54 89.4698C264.497 89.3465 264.423 89.236 264.326 89.1486L260.444 85.3727C260.33 85.2632 260.25 85.1241 260.211 84.9711C260.172 84.8182 260.177 84.6574 260.225 84.507C260.272 84.3565 260.361 84.2224 260.481 84.1197C260.601 84.0171 260.747 83.9499 260.903 83.9259L266.267 83.1495C266.402 83.1299 266.53 83.0779 266.641 82.998C266.751 82.9181 266.841 82.8127 266.902 82.6908L269.302 77.8562C269.366 77.7131 269.47 77.5915 269.601 77.5062C269.733 77.421 269.886 77.3756 270.043 77.3756C270.199 77.3756 270.353 77.421 270.484 77.5062C270.616 77.5915 270.72 77.7131 270.784 77.8562V77.8562Z" fill="#0065FF"></path>
</g>
<defs>
<linearGradient id="paint0_linear_1123_202018" x1="270" y1="5.49803" x2="270" y2="39.4262" gradientUnits="userSpaceOnUse">
<stop stop-color="#00A3BF"></stop>
<stop offset="1" stop-color="#00A3BF" stop-opacity="0"></stop>
</linearGradient>
<linearGradient id="paint1_linear_1123_202018" x1="249.472" y1="37.8594" x2="256.423" y2="137.643" gradientUnits="userSpaceOnUse">
<stop stop-color="#00A3BF"></stop>
<stop offset="0.1395" stop-color="#00A3BF" stop-opacity="0.8605"></stop>
<stop offset="1" stop-color="#00A3BF" stop-opacity="0"></stop>
</linearGradient>
<linearGradient id="paint2_linear_1123_202018" x1="270" y1="120" x2="270" y2="73.2429" gradientUnits="userSpaceOnUse">
<stop stop-color="#00A3BF" stop-opacity="0"></stop>
<stop offset="0.8605" stop-color="#00A3BF" stop-opacity="0.8605"></stop>
<stop offset="1" stop-color="#00A3BF"></stop>
</linearGradient>
<linearGradient id="paint3_linear_1123_202018" x1="246.053" y1="135.476" x2="269.196" y2="95.3913" gradientUnits="userSpaceOnUse">
<stop offset="0.35" stop-color="#FFC400"></stop>
<stop offset="0.52" stop-color="#FFB40B"></stop>
<stop offset="0.8" stop-color="#FFA01A"></stop>
<stop offset="0.99" stop-color="#FF991F"></stop>
</linearGradient>
<clipPath id="clip0_1123_202018">
<rect width="58.0856" height="80" fill="white" transform="translate(241 60)"></rect>
</clipPath>
</defs>
</svg>
